<?xml version="1.0" encoding="UTF-8"?>
<svg xmlns="http://www.w3.org/2000/svg" xmlns:xlink="http://www.w3.org/1999/xlink" width="300px" height="180px" viewBox="0 0 299 180" version="1.1">
<g id="surface1">
<path style=" stroke:none;fill-rule:nonzero;fill:rgb(0%,0%,0%);fill-opacity:1;" d="M 42.914062 10.523438 C 40.386719 11.1875 38.304688 12.847656 37.167969 15.121094 C 36.238281 16.984375 36.300781 11.660156 36.269531 88.75 C 36.238281 145.746094 36.285156 159.617188 36.445312 159.824219 C 36.554688 159.949219 36.585938 160.058594 36.507812 160.058594 C 36.445312 160.058594 36.460938 160.140625 36.539062 160.21875 C 36.664062 160.34375 71.800781 160.390625 149.816406 160.390625 C 212.023438 160.375 262.996094 160.375 263.09375 160.375 C 263.1875 160.375 263.34375 160.105469 263.4375 159.757812 C 263.582031 159.300781 263.628906 141.589844 263.628906 88.515625 L 263.628906 17.886719 L 263.265625 16.636719 C 263.0625 15.941406 262.714844 15.058594 262.492188 14.679688 C 261.46875 12.925781 259.542969 11.34375 257.648438 10.695312 L 256.609375 10.347656 L 150.195312 10.316406 C 57.804688 10.300781 43.667969 10.316406 42.914062 10.523438 Z M 150.195312 15.328125 C 150.195312 15.40625 150.082031 15.484375 149.957031 15.484375 C 149.832031 15.484375 149.722656 15.40625 149.722656 15.328125 C 149.722656 15.230469 149.832031 15.167969 149.957031 15.167969 C 150.082031 15.167969 150.195312 15.230469 150.195312 15.328125 Z M 255.582031 85.402344 L 255.582031 151.527344 L 44.332031 151.527344 L 44.332031 19.277344 L 255.582031 19.277344 Z M 255.582031 85.402344 "/>
<path style=" stroke:none;fill-rule:nonzero;fill:rgb(0%,0%,0%);fill-opacity:1;" d="M 12.382812 166.03125 C 13.914062 166.964844 16.832031 167.992188 19.277344 168.464844 L 21.0625 168.8125 L 148.851562 168.875 C 242.882812 168.90625 277.101562 168.875 278.378906 168.75 C 281.820312 168.386719 284.5625 167.660156 286.632812 166.523438 C 287.121094 166.253906 287.59375 165.96875 287.671875 165.890625 C 287.765625 165.8125 227.578125 165.746094 149.863281 165.746094 C 16.503906 165.746094 11.925781 165.765625 12.382812 166.03125 Z M 13.566406 165.96875 C 13.566406 166.144531 13.269531 166.207031 13.171875 166.0625 C 13.125 165.984375 13.1875 165.90625 13.316406 165.90625 C 13.457031 165.90625 13.566406 165.9375 13.566406 165.96875 Z M 13.566406 165.96875 "/>
</g>
</svg>
